<mxfile host="Electron" modified="2023-10-18T08:47:46.133Z" agent="Mozilla/5.0 (Windows NT 10.0; Win64; x64) AppleWebKit/537.36 (KHTML, like Gecko) draw.io/21.1.2 Chrome/106.0.5249.199 Electron/21.4.3 Safari/537.36" etag="-5NNjjvIv-Fu5s1I3Vvd" version="21.1.2" type="device">
  <diagram name="ページ1" id="Z36bnRHXo4-Sn-wLioE_">
    <mxGraphModel dx="989" dy="582" grid="1" gridSize="10" guides="1" tooltips="1" connect="1" arrows="1" fold="1" page="1" pageScale="1" pageWidth="827" pageHeight="1169" math="1" shadow="0">
      <root>
        <mxCell id="0" />
        <mxCell id="1" parent="0" />
        <mxCell id="qpCPb7txdEObnfIfevjp-1" value="" style="endArrow=none;html=1;rounded=0;" parent="1" edge="1">
          <mxGeometry width="50" height="50" relative="1" as="geometry">
            <mxPoint x="200" y="120" as="sourcePoint" />
            <mxPoint x="440" y="120" as="targetPoint" />
          </mxGeometry>
        </mxCell>
        <mxCell id="qpCPb7txdEObnfIfevjp-7" style="edgeStyle=orthogonalEdgeStyle;shape=connector;rounded=0;orthogonalLoop=1;jettySize=auto;html=1;exitX=0;exitY=0.5;exitDx=0;exitDy=0;exitPerimeter=0;labelBackgroundColor=default;strokeColor=default;fontFamily=Helvetica;fontSize=11;fontColor=default;endArrow=none;endFill=0;" parent="1" source="qpCPb7txdEObnfIfevjp-3" edge="1">
          <mxGeometry relative="1" as="geometry">
            <mxPoint x="259.8571428571428" y="120" as="targetPoint" />
          </mxGeometry>
        </mxCell>
        <mxCell id="oVZHHymoY7fQeWZgE7TI-14" style="edgeStyle=orthogonalEdgeStyle;shape=connector;rounded=0;orthogonalLoop=1;jettySize=auto;html=1;exitX=1;exitY=0.5;exitDx=0;exitDy=0;exitPerimeter=0;entryX=1;entryY=0;entryDx=0;entryDy=0;entryPerimeter=0;labelBackgroundColor=default;strokeColor=default;fontFamily=Helvetica;fontSize=11;fontColor=default;endArrow=none;endFill=0;" parent="1" source="qpCPb7txdEObnfIfevjp-3" target="oVZHHymoY7fQeWZgE7TI-7" edge="1">
          <mxGeometry relative="1" as="geometry" />
        </mxCell>
        <mxCell id="qpCPb7txdEObnfIfevjp-3" value="" style="pointerEvents=1;verticalLabelPosition=bottom;shadow=0;dashed=0;align=center;html=1;verticalAlign=top;shape=mxgraph.electrical.signal_sources.source;aspect=fixed;points=[[0.5,0,0],[1,0.5,0],[0.5,1,0],[0,0.5,0]];elSignalType=dc1;rotation=90;" parent="1" vertex="1">
          <mxGeometry x="230" y="150" width="60" height="60" as="geometry" />
        </mxCell>
        <mxCell id="qpCPb7txdEObnfIfevjp-9" value="&lt;font style=&quot;font-size: 24px;&quot;&gt;`I_{bias}`&lt;/font&gt;" style="text;html=1;align=center;verticalAlign=middle;resizable=0;points=[];autosize=1;strokeColor=none;fillColor=none;fontSize=11;fontFamily=Helvetica;fontColor=default;" parent="1" vertex="1">
          <mxGeometry x="130" y="130" width="120" height="40" as="geometry" />
        </mxCell>
        <mxCell id="qpCPb7txdEObnfIfevjp-10" value="&lt;font style=&quot;font-size: 24px;&quot;&gt;`V_{dd}`&lt;/font&gt;" style="text;html=1;align=center;verticalAlign=middle;resizable=0;points=[];autosize=1;strokeColor=none;fillColor=none;fontSize=11;fontFamily=Helvetica;fontColor=default;" parent="1" vertex="1">
          <mxGeometry x="265" y="80" width="110" height="40" as="geometry" />
        </mxCell>
        <mxCell id="BBrKMa6w8cZOAgFhnaoF-1" value="" style="shape=waypoint;sketch=0;fillStyle=solid;size=6;pointerEvents=1;points=[];fillColor=none;resizable=0;rotatable=0;perimeter=centerPerimeter;snapToPoint=1;fontFamily=Helvetica;fontSize=11;fontColor=default;" parent="1" vertex="1">
          <mxGeometry x="370" y="110" width="20" height="20" as="geometry" />
        </mxCell>
        <mxCell id="oVZHHymoY7fQeWZgE7TI-2" style="edgeStyle=orthogonalEdgeStyle;rounded=0;orthogonalLoop=1;jettySize=auto;html=1;exitX=0;exitY=0.5;exitDx=0;exitDy=0;exitPerimeter=0;entryX=0.483;entryY=0.633;entryDx=0;entryDy=0;entryPerimeter=0;endArrow=none;endFill=0;" parent="1" source="oVZHHymoY7fQeWZgE7TI-1" target="BBrKMa6w8cZOAgFhnaoF-1" edge="1">
          <mxGeometry relative="1" as="geometry" />
        </mxCell>
        <mxCell id="oVZHHymoY7fQeWZgE7TI-13" style="edgeStyle=orthogonalEdgeStyle;shape=connector;rounded=0;orthogonalLoop=1;jettySize=auto;html=1;exitX=1;exitY=0.5;exitDx=0;exitDy=0;exitPerimeter=0;entryX=1;entryY=0;entryDx=0;entryDy=0;entryPerimeter=0;labelBackgroundColor=default;strokeColor=default;fontFamily=Helvetica;fontSize=11;fontColor=default;endArrow=none;endFill=0;" parent="1" source="oVZHHymoY7fQeWZgE7TI-1" target="oVZHHymoY7fQeWZgE7TI-8" edge="1">
          <mxGeometry relative="1" as="geometry" />
        </mxCell>
        <mxCell id="oVZHHymoY7fQeWZgE7TI-1" value="" style="pointerEvents=1;verticalLabelPosition=bottom;shadow=0;dashed=0;align=center;html=1;verticalAlign=top;shape=mxgraph.electrical.signal_sources.source;aspect=fixed;points=[[0.5,0,0],[1,0.5,0],[0.5,1,0],[0,0.5,0]];elSignalType=dc1;rotation=90;" parent="1" vertex="1">
          <mxGeometry x="350" y="150" width="60" height="60" as="geometry" />
        </mxCell>
        <mxCell id="oVZHHymoY7fQeWZgE7TI-3" value="" style="shape=waypoint;sketch=0;fillStyle=solid;size=6;pointerEvents=1;points=[];fillColor=none;resizable=0;rotatable=0;perimeter=centerPerimeter;snapToPoint=1;fontFamily=Helvetica;fontSize=11;fontColor=default;" parent="1" vertex="1">
          <mxGeometry x="250" y="110" width="20" height="20" as="geometry" />
        </mxCell>
        <mxCell id="oVZHHymoY7fQeWZgE7TI-4" value="" style="endArrow=classic;html=1;rounded=0;labelBackgroundColor=default;strokeColor=default;fontFamily=Helvetica;fontSize=11;fontColor=default;shape=connector;" parent="1" edge="1">
          <mxGeometry width="50" height="50" relative="1" as="geometry">
            <mxPoint x="220" y="140" as="sourcePoint" />
            <mxPoint x="220" y="180" as="targetPoint" />
          </mxGeometry>
        </mxCell>
        <mxCell id="oVZHHymoY7fQeWZgE7TI-5" value="" style="endArrow=classic;html=1;rounded=0;labelBackgroundColor=default;strokeColor=default;fontFamily=Helvetica;fontSize=11;fontColor=default;shape=connector;" parent="1" edge="1">
          <mxGeometry width="50" height="50" relative="1" as="geometry">
            <mxPoint x="420" y="140" as="sourcePoint" />
            <mxPoint x="420" y="180" as="targetPoint" />
          </mxGeometry>
        </mxCell>
        <mxCell id="oVZHHymoY7fQeWZgE7TI-6" value="&lt;font style=&quot;font-size: 24px;&quot;&gt;`I_{bias}`&lt;/font&gt;" style="text;html=1;align=center;verticalAlign=middle;resizable=0;points=[];autosize=1;strokeColor=none;fillColor=none;fontSize=11;fontFamily=Helvetica;fontColor=default;" parent="1" vertex="1">
          <mxGeometry x="390" y="130" width="120" height="40" as="geometry" />
        </mxCell>
        <mxCell id="oVZHHymoY7fQeWZgE7TI-10" style="edgeStyle=orthogonalEdgeStyle;shape=connector;rounded=0;orthogonalLoop=1;jettySize=auto;html=1;exitX=1;exitY=1;exitDx=0;exitDy=0;exitPerimeter=0;entryX=1;entryY=1;entryDx=0;entryDy=0;entryPerimeter=0;labelBackgroundColor=default;strokeColor=default;fontFamily=Helvetica;fontSize=11;fontColor=default;endArrow=none;endFill=0;" parent="1" source="oVZHHymoY7fQeWZgE7TI-7" target="oVZHHymoY7fQeWZgE7TI-8" edge="1">
          <mxGeometry relative="1" as="geometry">
            <Array as="points">
              <mxPoint x="260" y="330" />
              <mxPoint x="380" y="330" />
            </Array>
          </mxGeometry>
        </mxCell>
        <mxCell id="oVZHHymoY7fQeWZgE7TI-7" value="" style="verticalLabelPosition=bottom;shadow=0;dashed=0;align=center;html=1;verticalAlign=top;shape=mxgraph.electrical.transistors.nmos;pointerEvents=1;fontFamily=Helvetica;fontSize=11;fontColor=default;" parent="1" vertex="1">
          <mxGeometry x="200" y="230" width="60" height="100" as="geometry" />
        </mxCell>
        <mxCell id="oVZHHymoY7fQeWZgE7TI-8" value="" style="verticalLabelPosition=bottom;shadow=0;dashed=0;align=center;html=1;verticalAlign=top;shape=mxgraph.electrical.transistors.nmos;pointerEvents=1;fontFamily=Helvetica;fontSize=11;fontColor=default;flipH=1;" parent="1" vertex="1">
          <mxGeometry x="380" y="230" width="60" height="100" as="geometry" />
        </mxCell>
        <mxCell id="oVZHHymoY7fQeWZgE7TI-12" style="edgeStyle=orthogonalEdgeStyle;shape=connector;rounded=0;orthogonalLoop=1;jettySize=auto;html=1;exitX=1;exitY=0;exitDx=0;exitDy=0;exitPerimeter=0;labelBackgroundColor=default;strokeColor=default;fontFamily=Helvetica;fontSize=11;fontColor=default;endArrow=none;endFill=0;" parent="1" source="oVZHHymoY7fQeWZgE7TI-9" target="oVZHHymoY7fQeWZgE7TI-11" edge="1">
          <mxGeometry relative="1" as="geometry" />
        </mxCell>
        <mxCell id="oVZHHymoY7fQeWZgE7TI-25" style="edgeStyle=orthogonalEdgeStyle;shape=connector;rounded=0;orthogonalLoop=1;jettySize=auto;html=1;exitX=1;exitY=1;exitDx=0;exitDy=0;exitPerimeter=0;entryX=0.5;entryY=0;entryDx=0;entryDy=0;entryPerimeter=0;labelBackgroundColor=default;strokeColor=default;fontFamily=Helvetica;fontSize=11;fontColor=default;endArrow=none;endFill=0;" parent="1" source="oVZHHymoY7fQeWZgE7TI-9" target="oVZHHymoY7fQeWZgE7TI-21" edge="1">
          <mxGeometry relative="1" as="geometry" />
        </mxCell>
        <mxCell id="oVZHHymoY7fQeWZgE7TI-9" value="" style="verticalLabelPosition=bottom;shadow=0;dashed=0;align=center;html=1;verticalAlign=top;shape=mxgraph.electrical.transistors.nmos;pointerEvents=1;fontFamily=Helvetica;fontSize=11;fontColor=default;" parent="1" vertex="1">
          <mxGeometry x="260" y="330" width="60" height="100" as="geometry" />
        </mxCell>
        <mxCell id="oVZHHymoY7fQeWZgE7TI-11" value="" style="shape=waypoint;sketch=0;fillStyle=solid;size=6;pointerEvents=1;points=[];fillColor=none;resizable=0;rotatable=0;perimeter=centerPerimeter;snapToPoint=1;fontFamily=Helvetica;fontSize=11;fontColor=default;" parent="1" vertex="1">
          <mxGeometry x="310" y="320" width="20" height="20" as="geometry" />
        </mxCell>
        <mxCell id="oVZHHymoY7fQeWZgE7TI-15" value="" style="shape=waypoint;sketch=0;fillStyle=solid;size=6;pointerEvents=1;points=[];fillColor=none;resizable=0;rotatable=0;perimeter=centerPerimeter;snapToPoint=1;fontFamily=Helvetica;fontSize=11;fontColor=default;" parent="1" vertex="1">
          <mxGeometry x="250" y="230" width="20" height="20" as="geometry" />
        </mxCell>
        <mxCell id="oVZHHymoY7fQeWZgE7TI-16" value="" style="shape=waypoint;sketch=0;fillStyle=solid;size=6;pointerEvents=1;points=[];fillColor=none;resizable=0;rotatable=0;perimeter=centerPerimeter;snapToPoint=1;fontFamily=Helvetica;fontSize=11;fontColor=default;" parent="1" vertex="1">
          <mxGeometry x="370" y="230" width="20" height="20" as="geometry" />
        </mxCell>
        <mxCell id="oVZHHymoY7fQeWZgE7TI-20" style="edgeStyle=orthogonalEdgeStyle;shape=connector;rounded=0;orthogonalLoop=1;jettySize=auto;html=1;exitX=1;exitY=0.5;exitDx=0;exitDy=0;labelBackgroundColor=default;strokeColor=default;fontFamily=Helvetica;fontSize=11;fontColor=default;endArrow=none;endFill=0;" parent="1" source="oVZHHymoY7fQeWZgE7TI-17" target="oVZHHymoY7fQeWZgE7TI-15" edge="1">
          <mxGeometry relative="1" as="geometry" />
        </mxCell>
        <mxCell id="oVZHHymoY7fQeWZgE7TI-17" value="" style="verticalLabelPosition=bottom;shadow=0;dashed=0;align=center;html=1;verticalAlign=top;strokeWidth=1;shape=ellipse;perimeter=ellipsePerimeter;fontFamily=Helvetica;fontSize=11;fontColor=default;aspect=fixed;" parent="1" vertex="1">
          <mxGeometry x="197" y="237" width="6" height="6" as="geometry" />
        </mxCell>
        <mxCell id="oVZHHymoY7fQeWZgE7TI-19" style="edgeStyle=orthogonalEdgeStyle;shape=connector;rounded=0;orthogonalLoop=1;jettySize=auto;html=1;exitX=0;exitY=0.5;exitDx=0;exitDy=0;entryX=0.575;entryY=0.583;entryDx=0;entryDy=0;entryPerimeter=0;labelBackgroundColor=default;strokeColor=default;fontFamily=Helvetica;fontSize=11;fontColor=default;endArrow=none;endFill=0;" parent="1" source="oVZHHymoY7fQeWZgE7TI-18" target="oVZHHymoY7fQeWZgE7TI-16" edge="1">
          <mxGeometry relative="1" as="geometry" />
        </mxCell>
        <mxCell id="oVZHHymoY7fQeWZgE7TI-18" value="" style="verticalLabelPosition=bottom;shadow=0;dashed=0;align=center;html=1;verticalAlign=top;strokeWidth=1;shape=ellipse;perimeter=ellipsePerimeter;fontFamily=Helvetica;fontSize=11;fontColor=default;aspect=fixed;" parent="1" vertex="1">
          <mxGeometry x="437" y="237" width="6" height="6" as="geometry" />
        </mxCell>
        <mxCell id="oVZHHymoY7fQeWZgE7TI-21" value="" style="pointerEvents=1;verticalLabelPosition=bottom;shadow=0;dashed=0;align=center;html=1;verticalAlign=top;shape=mxgraph.electrical.signal_sources.signal_ground;fontFamily=Helvetica;fontSize=11;fontColor=default;" parent="1" vertex="1">
          <mxGeometry x="297.5" y="500" width="45" height="30" as="geometry" />
        </mxCell>
        <mxCell id="oVZHHymoY7fQeWZgE7TI-32" style="edgeStyle=orthogonalEdgeStyle;shape=connector;rounded=0;orthogonalLoop=1;jettySize=auto;html=1;exitX=0.5;exitY=1;exitDx=0;exitDy=0;exitPerimeter=0;entryX=1;entryY=0.5;entryDx=0;entryDy=0;entryPerimeter=0;labelBackgroundColor=default;strokeColor=default;fontFamily=Helvetica;fontSize=11;fontColor=default;endArrow=none;endFill=0;" parent="1" source="oVZHHymoY7fQeWZgE7TI-22" target="oVZHHymoY7fQeWZgE7TI-30" edge="1">
          <mxGeometry relative="1" as="geometry" />
        </mxCell>
        <mxCell id="oVZHHymoY7fQeWZgE7TI-37" style="edgeStyle=orthogonalEdgeStyle;shape=connector;rounded=0;orthogonalLoop=1;jettySize=auto;html=1;exitX=0.5;exitY=0;exitDx=0;exitDy=0;exitPerimeter=0;entryX=0;entryY=0.5;entryDx=0;entryDy=0;entryPerimeter=0;labelBackgroundColor=default;strokeColor=default;fontFamily=Helvetica;fontSize=11;fontColor=default;endArrow=none;endFill=0;" parent="1" source="oVZHHymoY7fQeWZgE7TI-22" target="oVZHHymoY7fQeWZgE7TI-7" edge="1">
          <mxGeometry relative="1" as="geometry" />
        </mxCell>
        <mxCell id="oVZHHymoY7fQeWZgE7TI-22" value="" style="pointerEvents=1;verticalLabelPosition=bottom;shadow=0;dashed=0;align=center;html=1;verticalAlign=top;shape=mxgraph.electrical.signal_sources.source;aspect=fixed;points=[[0.5,0,0],[1,0.5,0],[0.5,1,0],[0,0.5,0]];elSignalType=ac;fontFamily=Helvetica;fontSize=11;fontColor=default;" parent="1" vertex="1">
          <mxGeometry x="130" y="330" width="60" height="60" as="geometry" />
        </mxCell>
        <mxCell id="oVZHHymoY7fQeWZgE7TI-24" style="edgeStyle=orthogonalEdgeStyle;shape=connector;rounded=0;orthogonalLoop=1;jettySize=auto;html=1;exitX=1;exitY=0.5;exitDx=0;exitDy=0;exitPerimeter=0;entryX=0;entryY=0.5;entryDx=0;entryDy=0;entryPerimeter=0;labelBackgroundColor=default;strokeColor=default;fontFamily=Helvetica;fontSize=11;fontColor=default;endArrow=none;endFill=0;" parent="1" source="oVZHHymoY7fQeWZgE7TI-23" target="oVZHHymoY7fQeWZgE7TI-9" edge="1">
          <mxGeometry relative="1" as="geometry">
            <Array as="points">
              <mxPoint x="240" y="380" />
            </Array>
          </mxGeometry>
        </mxCell>
        <mxCell id="oVZHHymoY7fQeWZgE7TI-28" style="edgeStyle=orthogonalEdgeStyle;shape=connector;rounded=0;orthogonalLoop=1;jettySize=auto;html=1;exitX=0;exitY=0.5;exitDx=0;exitDy=0;exitPerimeter=0;labelBackgroundColor=default;strokeColor=default;fontFamily=Helvetica;fontSize=11;fontColor=default;endArrow=none;endFill=0;" parent="1" source="oVZHHymoY7fQeWZgE7TI-23" target="oVZHHymoY7fQeWZgE7TI-27" edge="1">
          <mxGeometry relative="1" as="geometry">
            <Array as="points">
              <mxPoint x="270" y="490" />
              <mxPoint x="270" y="490" />
            </Array>
          </mxGeometry>
        </mxCell>
        <mxCell id="oVZHHymoY7fQeWZgE7TI-23" value="" style="verticalLabelPosition=bottom;shadow=0;dashed=0;align=center;fillColor=strokeColor;html=1;verticalAlign=top;strokeWidth=1;shape=mxgraph.electrical.miscellaneous.monocell_battery;fontFamily=Helvetica;fontSize=11;fontColor=default;direction=north;" parent="1" vertex="1">
          <mxGeometry x="210" y="390" width="60" height="100" as="geometry" />
        </mxCell>
        <mxCell id="oVZHHymoY7fQeWZgE7TI-27" value="" style="shape=waypoint;sketch=0;fillStyle=solid;size=6;pointerEvents=1;points=[];fillColor=none;resizable=0;rotatable=0;perimeter=centerPerimeter;snapToPoint=1;fontFamily=Helvetica;fontSize=11;fontColor=default;" parent="1" vertex="1">
          <mxGeometry x="310" y="480" width="20" height="20" as="geometry" />
        </mxCell>
        <mxCell id="oVZHHymoY7fQeWZgE7TI-33" style="edgeStyle=orthogonalEdgeStyle;shape=connector;rounded=0;orthogonalLoop=1;jettySize=auto;html=1;exitX=0.5;exitY=1;exitDx=0;exitDy=0;exitPerimeter=0;entryX=1;entryY=0.5;entryDx=0;entryDy=0;entryPerimeter=0;labelBackgroundColor=default;strokeColor=default;fontFamily=Helvetica;fontSize=11;fontColor=default;endArrow=none;endFill=0;" parent="1" source="oVZHHymoY7fQeWZgE7TI-29" target="oVZHHymoY7fQeWZgE7TI-31" edge="1">
          <mxGeometry relative="1" as="geometry" />
        </mxCell>
        <mxCell id="oVZHHymoY7fQeWZgE7TI-38" style="edgeStyle=orthogonalEdgeStyle;shape=connector;rounded=0;orthogonalLoop=1;jettySize=auto;html=1;exitX=0.5;exitY=0;exitDx=0;exitDy=0;exitPerimeter=0;entryX=0;entryY=0.5;entryDx=0;entryDy=0;entryPerimeter=0;labelBackgroundColor=default;strokeColor=default;fontFamily=Helvetica;fontSize=11;fontColor=default;endArrow=none;endFill=0;" parent="1" source="oVZHHymoY7fQeWZgE7TI-29" target="oVZHHymoY7fQeWZgE7TI-8" edge="1">
          <mxGeometry relative="1" as="geometry" />
        </mxCell>
        <mxCell id="oVZHHymoY7fQeWZgE7TI-29" value="" style="pointerEvents=1;verticalLabelPosition=bottom;shadow=0;dashed=0;align=center;html=1;verticalAlign=top;shape=mxgraph.electrical.signal_sources.source;aspect=fixed;points=[[0.5,0,0],[1,0.5,0],[0.5,1,0],[0,0.5,0]];elSignalType=ac;fontFamily=Helvetica;fontSize=11;fontColor=default;" parent="1" vertex="1">
          <mxGeometry x="450" y="330" width="60" height="60" as="geometry" />
        </mxCell>
        <mxCell id="oVZHHymoY7fQeWZgE7TI-35" style="edgeStyle=orthogonalEdgeStyle;shape=connector;rounded=0;orthogonalLoop=1;jettySize=auto;html=1;exitX=0;exitY=0.5;exitDx=0;exitDy=0;exitPerimeter=0;labelBackgroundColor=default;strokeColor=default;fontFamily=Helvetica;fontSize=11;fontColor=default;endArrow=none;endFill=0;" parent="1" source="oVZHHymoY7fQeWZgE7TI-30" target="oVZHHymoY7fQeWZgE7TI-34" edge="1">
          <mxGeometry relative="1" as="geometry">
            <Array as="points">
              <mxPoint x="190" y="490" />
              <mxPoint x="190" y="490" />
            </Array>
          </mxGeometry>
        </mxCell>
        <mxCell id="oVZHHymoY7fQeWZgE7TI-30" value="" style="verticalLabelPosition=bottom;shadow=0;dashed=0;align=center;fillColor=strokeColor;html=1;verticalAlign=top;strokeWidth=1;shape=mxgraph.electrical.miscellaneous.monocell_battery;fontFamily=Helvetica;fontSize=11;fontColor=default;direction=north;" parent="1" vertex="1">
          <mxGeometry x="130" y="390" width="60" height="100" as="geometry" />
        </mxCell>
        <mxCell id="oVZHHymoY7fQeWZgE7TI-36" style="edgeStyle=orthogonalEdgeStyle;shape=connector;rounded=0;orthogonalLoop=1;jettySize=auto;html=1;exitX=0;exitY=0.5;exitDx=0;exitDy=0;exitPerimeter=0;labelBackgroundColor=default;strokeColor=default;fontFamily=Helvetica;fontSize=11;fontColor=default;endArrow=none;endFill=0;" parent="1" source="oVZHHymoY7fQeWZgE7TI-31" target="oVZHHymoY7fQeWZgE7TI-27" edge="1">
          <mxGeometry relative="1" as="geometry">
            <Array as="points">
              <mxPoint x="430" y="490" />
              <mxPoint x="430" y="490" />
            </Array>
          </mxGeometry>
        </mxCell>
        <mxCell id="oVZHHymoY7fQeWZgE7TI-31" value="" style="verticalLabelPosition=bottom;shadow=0;dashed=0;align=center;fillColor=strokeColor;html=1;verticalAlign=top;strokeWidth=1;shape=mxgraph.electrical.miscellaneous.monocell_battery;fontFamily=Helvetica;fontSize=11;fontColor=default;direction=north;" parent="1" vertex="1">
          <mxGeometry x="450" y="390" width="60" height="100" as="geometry" />
        </mxCell>
        <mxCell id="oVZHHymoY7fQeWZgE7TI-34" value="" style="shape=waypoint;sketch=0;fillStyle=solid;size=6;pointerEvents=1;points=[];fillColor=none;resizable=0;rotatable=0;perimeter=centerPerimeter;snapToPoint=1;fontFamily=Helvetica;fontSize=11;fontColor=default;" parent="1" vertex="1">
          <mxGeometry x="230" y="480" width="20" height="20" as="geometry" />
        </mxCell>
        <mxCell id="oVZHHymoY7fQeWZgE7TI-39" value="&lt;font style=&quot;font-size: 24px;&quot;&gt;`V_{nS}`&lt;/font&gt;" style="text;html=1;align=center;verticalAlign=middle;resizable=0;points=[];autosize=1;strokeColor=none;fillColor=none;fontSize=11;fontFamily=Helvetica;fontColor=default;" parent="1" vertex="1">
          <mxGeometry x="297.5" y="330" width="110" height="40" as="geometry" />
        </mxCell>
        <mxCell id="oVZHHymoY7fQeWZgE7TI-41" value="" style="endArrow=classic;html=1;rounded=0;labelBackgroundColor=default;strokeColor=default;fontFamily=Helvetica;fontSize=11;fontColor=default;shape=connector;" parent="1" edge="1">
          <mxGeometry width="50" height="50" relative="1" as="geometry">
            <mxPoint x="220" y="229.52" as="sourcePoint" />
            <mxPoint x="180" y="229.52" as="targetPoint" />
          </mxGeometry>
        </mxCell>
        <mxCell id="oVZHHymoY7fQeWZgE7TI-42" value="" style="endArrow=classic;html=1;rounded=0;labelBackgroundColor=default;strokeColor=default;fontFamily=Helvetica;fontSize=11;fontColor=default;shape=connector;" parent="1" edge="1">
          <mxGeometry width="50" height="50" relative="1" as="geometry">
            <mxPoint x="420" y="229.52" as="sourcePoint" />
            <mxPoint x="460" y="229.52" as="targetPoint" />
          </mxGeometry>
        </mxCell>
        <mxCell id="ocC3kQ23shaw-6_EiHHq-1" value="" style="endArrow=classic;html=1;rounded=0;labelBackgroundColor=default;strokeColor=default;fontFamily=Helvetica;fontSize=11;fontColor=default;shape=connector;" edge="1" parent="1">
          <mxGeometry width="50" height="50" relative="1" as="geometry">
            <mxPoint x="330" y="430" as="sourcePoint" />
            <mxPoint x="330" y="470" as="targetPoint" />
          </mxGeometry>
        </mxCell>
        <mxCell id="ocC3kQ23shaw-6_EiHHq-2" value="&lt;font style=&quot;font-size: 24px;&quot;&gt;`I_{bias}`&lt;/font&gt;" style="text;html=1;align=center;verticalAlign=middle;resizable=0;points=[];autosize=1;strokeColor=none;fillColor=none;fontSize=11;fontFamily=Helvetica;fontColor=default;" vertex="1" parent="1">
          <mxGeometry x="300" y="430" width="120" height="40" as="geometry" />
        </mxCell>
        <mxCell id="ocC3kQ23shaw-6_EiHHq-3" value="&lt;font style=&quot;font-size: 24px;&quot;&gt;`V_{nb}`&lt;/font&gt;" style="text;html=1;align=center;verticalAlign=middle;resizable=0;points=[];autosize=1;strokeColor=none;fillColor=none;fontSize=11;fontFamily=Helvetica;fontColor=default;" vertex="1" parent="1">
          <mxGeometry x="60" y="430" width="110" height="40" as="geometry" />
        </mxCell>
        <mxCell id="ocC3kQ23shaw-6_EiHHq-4" value="&lt;font style=&quot;font-size: 24px;&quot;&gt;`V_{nb}`&lt;/font&gt;" style="text;html=1;align=center;verticalAlign=middle;resizable=0;points=[];autosize=1;strokeColor=none;fillColor=none;fontSize=11;fontFamily=Helvetica;fontColor=default;" vertex="1" parent="1">
          <mxGeometry x="480" y="430" width="110" height="40" as="geometry" />
        </mxCell>
        <mxCell id="ocC3kQ23shaw-6_EiHHq-5" value="&lt;font style=&quot;font-size: 24px;&quot;&gt;`V_{i n+}`&lt;/font&gt;" style="text;html=1;align=center;verticalAlign=middle;resizable=0;points=[];autosize=1;strokeColor=none;fillColor=none;fontSize=11;fontFamily=Helvetica;fontColor=default;" vertex="1" parent="1">
          <mxGeometry x="480" y="370" width="120" height="40" as="geometry" />
        </mxCell>
        <mxCell id="ocC3kQ23shaw-6_EiHHq-7" value="&lt;font style=&quot;font-size: 24px;&quot;&gt;`V_{i n-}`&lt;/font&gt;" style="text;html=1;align=center;verticalAlign=middle;resizable=0;points=[];autosize=1;strokeColor=none;fillColor=none;fontSize=11;fontFamily=Helvetica;fontColor=default;" vertex="1" parent="1">
          <mxGeometry x="60" y="370" width="120" height="40" as="geometry" />
        </mxCell>
        <mxCell id="ocC3kQ23shaw-6_EiHHq-8" value="&lt;font style=&quot;font-size: 24px;&quot;&gt;`M_{C}`&lt;/font&gt;" style="text;html=1;align=center;verticalAlign=middle;resizable=0;points=[];autosize=1;strokeColor=none;fillColor=none;fontSize=11;fontFamily=Helvetica;fontColor=default;" vertex="1" parent="1">
          <mxGeometry x="290" y="370" width="110" height="40" as="geometry" />
        </mxCell>
        <mxCell id="ocC3kQ23shaw-6_EiHHq-9" value="&lt;font style=&quot;font-size: 24px;&quot;&gt;`M_{n1}`&lt;/font&gt;" style="text;html=1;align=center;verticalAlign=middle;resizable=0;points=[];autosize=1;strokeColor=none;fillColor=none;fontSize=11;fontFamily=Helvetica;fontColor=default;" vertex="1" parent="1">
          <mxGeometry x="165" y="300" width="120" height="40" as="geometry" />
        </mxCell>
        <mxCell id="ocC3kQ23shaw-6_EiHHq-10" value="&lt;font style=&quot;font-size: 24px;&quot;&gt;`M_{n2}`&lt;/font&gt;" style="text;html=1;align=center;verticalAlign=middle;resizable=0;points=[];autosize=1;strokeColor=none;fillColor=none;fontSize=11;fontFamily=Helvetica;fontColor=default;" vertex="1" parent="1">
          <mxGeometry x="354" y="300" width="120" height="40" as="geometry" />
        </mxCell>
        <mxCell id="ocC3kQ23shaw-6_EiHHq-11" value="" style="endArrow=classic;html=1;rounded=0;labelBackgroundColor=default;strokeColor=default;fontFamily=Helvetica;fontSize=11;fontColor=default;shape=connector;" edge="1" parent="1">
          <mxGeometry width="50" height="50" relative="1" as="geometry">
            <mxPoint x="270" y="237" as="sourcePoint" />
            <mxPoint x="270" y="277" as="targetPoint" />
          </mxGeometry>
        </mxCell>
        <mxCell id="ocC3kQ23shaw-6_EiHHq-12" value="" style="endArrow=classic;html=1;rounded=0;labelBackgroundColor=default;strokeColor=default;fontFamily=Helvetica;fontSize=11;fontColor=default;shape=connector;" edge="1" parent="1">
          <mxGeometry width="50" height="50" relative="1" as="geometry">
            <mxPoint x="369.43" y="237" as="sourcePoint" />
            <mxPoint x="369.43" y="277" as="targetPoint" />
          </mxGeometry>
        </mxCell>
        <mxCell id="ocC3kQ23shaw-6_EiHHq-13" value="&lt;font style=&quot;font-size: 15px;&quot;&gt;`I_{bias}&quot;/&quot;2 -i`&lt;/font&gt;" style="text;html=1;align=center;verticalAlign=middle;resizable=0;points=[];autosize=1;strokeColor=none;fillColor=none;fontSize=15;fontFamily=Helvetica;fontColor=default;" vertex="1" parent="1">
          <mxGeometry x="250" y="213" width="120" height="30" as="geometry" />
        </mxCell>
        <mxCell id="ocC3kQ23shaw-6_EiHHq-14" value="&lt;font style=&quot;font-size: 15px;&quot;&gt;`I_{bias}&quot;/&quot;2 +i`&lt;/font&gt;" style="text;html=1;align=center;verticalAlign=middle;resizable=0;points=[];autosize=1;strokeColor=none;fillColor=none;fontSize=15;fontFamily=Helvetica;fontColor=default;" vertex="1" parent="1">
          <mxGeometry x="285" y="270" width="120" height="30" as="geometry" />
        </mxCell>
        <mxCell id="ocC3kQ23shaw-6_EiHHq-15" value="&lt;font style=&quot;font-size: 15px;&quot;&gt;`I_{bias}&quot;/&quot;2 +i`&lt;/font&gt;" style="text;html=1;align=center;verticalAlign=middle;resizable=0;points=[];autosize=1;strokeColor=none;fillColor=none;fontSize=15;fontFamily=Helvetica;fontColor=default;" vertex="1" parent="1">
          <mxGeometry x="130" y="200" width="120" height="30" as="geometry" />
        </mxCell>
        <mxCell id="ocC3kQ23shaw-6_EiHHq-16" value="&lt;font style=&quot;font-size: 15px;&quot;&gt;`I_{bias}&quot;/&quot;2 -i`&lt;/font&gt;" style="text;html=1;align=center;verticalAlign=middle;resizable=0;points=[];autosize=1;strokeColor=none;fillColor=none;fontSize=15;fontFamily=Helvetica;fontColor=default;" vertex="1" parent="1">
          <mxGeometry x="400" y="200" width="120" height="30" as="geometry" />
        </mxCell>
        <mxCell id="ocC3kQ23shaw-6_EiHHq-17" value="&lt;font style=&quot;font-size: 24px;&quot;&gt;`V_{pS1}`&lt;/font&gt;" style="text;html=1;align=center;verticalAlign=middle;resizable=0;points=[];autosize=1;strokeColor=none;fillColor=none;fontSize=11;fontFamily=Helvetica;fontColor=default;" vertex="1" parent="1">
          <mxGeometry x="100" y="230" width="130" height="40" as="geometry" />
        </mxCell>
        <mxCell id="ocC3kQ23shaw-6_EiHHq-18" value="&lt;font style=&quot;font-size: 24px;&quot;&gt;`V_{pS2}`&lt;/font&gt;" style="text;html=1;align=center;verticalAlign=middle;resizable=0;points=[];autosize=1;strokeColor=none;fillColor=none;fontSize=11;fontFamily=Helvetica;fontColor=default;" vertex="1" parent="1">
          <mxGeometry x="420" y="230" width="130" height="40" as="geometry" />
        </mxCell>
        <mxCell id="ocC3kQ23shaw-6_EiHHq-19" value="&lt;font style=&quot;font-size: 24px;&quot;&gt;`V_{cb}`&lt;/font&gt;" style="text;html=1;align=center;verticalAlign=middle;resizable=0;points=[];autosize=1;strokeColor=none;fillColor=none;fontSize=11;fontFamily=Helvetica;fontColor=default;" vertex="1" parent="1">
          <mxGeometry x="232.5" y="430" width="110" height="40" as="geometry" />
        </mxCell>
      </root>
    </mxGraphModel>
  </diagram>
</mxfile>
